<svg xmlns="http://www.w3.org/2000/svg" viewBox="0 0 36 36" width="32" height="32">
  <title>Favicon</title>
  <path fill-rule="evenodd" clip-rule="evenodd" d="M15.382 6.247a1.585 1.585 0 0 1 2.977-1.089l2.77 7.575a9.2 9.2 0 0 0-3.95-1.575zm12.136 4.079a1.585 1.585 0 0 0-2.976-1.09l-1.803 4.928a9.2 9.2 0 0 1 2.014 3.718zm3.689 9.8a1.58 1.58 0 0 0-1.573-2.739l-4.572 2.626.002.08q.003.082.004.167c0 1.39-.314 2.71-.872 3.893zM19.72 28.6l7.986 1.4a1.578 1.578 0 1 0 .545-3.107l-5.196-.912A9.3 9.3 0 0 1 19.72 28.6m-1.091 6.72-5.208-6.174a9.3 9.3 0 0 0 4.249.13l3.377 4.004a1.582 1.582 0 0 1-2.419 2.04M7.996 7.062A1.58 1.58 0 0 0 6.424 9.8l4.56 2.619a9.2 9.2 0 0 1 4.035-1.325zM1.305 15.15a1.578 1.578 0 0 0 .546 3.108l5.197-.911a9.2 9.2 0 0 1 2.24-3.597zm5.302 4.301-5.199 6.164a1.582 1.582 0 1 0 2.419 2.04l3.39-4.02a9.1 9.1 0 0 1-.61-4.184m9.212-6.73c-4.179 0-7.578 3.381-7.578 7.539v13.319a1.586 1.586 0 1 0 3.17 0v-7.192A7.56 7.56 0 0 0 15.82 27.8c4.178 0 7.578-3.382 7.578-7.54 0-4.156-3.4-7.539-7.578-7.539m0 11.923c-2.43 0-4.407-1.967-4.407-4.384s1.977-4.385 4.407-4.385 4.407 1.967 4.407 4.385-1.977 4.384-4.407 4.384" fill="#00A67C"></path>
</svg>
